<?xml version="1.0" standalone="no"?>
<!DOCTYPE svg PUBLIC "-//W3C//DTD SVG 20010904//EN"
 "http://www.w3.org/TR/2001/REC-SVG-20010904/DTD/svg10.dtd">
<svg version="1.0" xmlns="http://www.w3.org/2000/svg"
 width="512.000000pt" height="512.000000pt" viewBox="0 0 512.000000 512.000000"
 preserveAspectRatio="xMidYMid meet">
<metadata>
Created by potrace 1.14, written by Peter Selinger 2001-2017
</metadata>
<g transform="translate(0.000000,512.000000) scale(0.100000,-0.100000)"
fill="#000000" stroke="none">
<path d="M2511 4751 c-16 -14 -60 -69 -97 -121 -58 -82 -277 -382 -449 -615
-28 -38 -87 -119 -131 -178 -43 -60 -126 -172 -182 -249 -57 -77 -108 -152
-113 -167 -6 -20 -60 -257 -94 -421 -2 -8 -36 -161 -75 -340 -84 -383 -79
-359 -85 -390 -3 -14 -30 -137 -60 -274 -30 -137 -57 -258 -59 -270 -3 -12
-23 -106 -46 -209 -46 -209 -50 -242 -29 -262 8 -7 64 -45 124 -83 1190 -746
1320 -825 1345 -825 18 0 210 114 591 353 310 195 589 369 619 388 177 108
256 162 267 184 10 20 2 69 -53 318 -35 162 -73 336 -84 385 -10 50 -60 277
-110 505 -50 228 -93 425 -96 438 -9 44 -101 460 -109 492 -2 8 -4 17 -4 20
-1 5 -475 656 -498 685 -5 6 -69 93 -143 195 -74 102 -137 187 -141 190 -3 3
-15 19 -25 35 -31 49 -162 222 -174 230 -26 16 -60 11 -89 -14z m-27 -618 l-1
-328 -105 -185 c-58 -102 -190 -333 -293 -515 -103 -181 -188 -331 -190 -333
-2 -2 -31 83 -65 190 -34 106 -79 245 -100 308 l-37 115 21 30 c11 17 168 233
350 480 181 248 347 476 370 507 23 32 43 58 46 58 3 0 5 -147 4 -327z m543
-198 c177 -242 330 -451 340 -464 10 -13 28 -37 40 -54 12 -16 21 -33 19 -36
-2 -3 -25 -73 -50 -156 -26 -82 -53 -168 -60 -190 -8 -22 -28 -85 -46 -140
-17 -55 -33 -106 -36 -114 -5 -16 -15 -2 -71 99 -16 30 -75 134 -130 230 -55
96 -142 249 -193 340 -51 91 -102 181 -113 200 -11 19 -36 64 -56 100 l-35 64
-1 316 c-1 173 1 319 3 323 2 5 18 -11 35 -34 18 -24 177 -241 354 -484z
m-322 -552 c77 -136 154 -272 171 -302 17 -31 88 -157 159 -280 71 -123 128
-229 128 -235 0 -6 -30 -105 -67 -221 -68 -211 -160 -500 -256 -802 -39 -123
-56 -163 -68 -164 -23 0 -392 -1 -417 0 -14 1 -25 11 -32 34 -14 40 -72 221
-153 477 -33 107 -65 206 -70 220 -24 69 -131 412 -136 437 -4 21 2 42 19 74
14 24 76 134 139 244 62 110 185 327 273 482 88 156 162 283 165 283 3 0 68
-111 145 -247z m-959 -655 c44 -135 44 -139 28 -170 -9 -18 -100 -178 -202
-357 -101 -180 -195 -346 -209 -370 -13 -25 -25 -46 -27 -48 -4 -4 5 40 29
147 9 41 19 86 21 100 5 26 18 84 105 475 28 127 53 241 55 255 3 14 21 95 40
181 19 85 34 160 35 165 0 5 18 -47 40 -116 22 -69 61 -187 85 -262z m1761
344 c1 -9 14 -69 28 -132 15 -63 29 -126 31 -140 5 -24 32 -151 39 -180 14
-65 129 -590 150 -685 14 -66 28 -129 31 -140 5 -19 -84 131 -161 270 -18 33
-64 114 -102 180 -38 66 -72 127 -76 135 -4 8 -13 24 -20 35 -7 11 -32 55 -55
98 l-44 77 16 43 c13 37 123 382 141 445 7 25 17 22 22 -6z m-1620 -789 c17
-54 64 -199 103 -323 164 -516 181 -572 176 -577 -6 -7 -874 -8 -880 -2 -2 2
14 36 36 74 22 39 117 205 211 370 93 165 179 316 190 335 11 19 36 64 55 100
19 36 41 72 48 81 8 8 14 21 14 27 0 7 4 12 8 12 5 0 22 -44 39 -97z m1618
-310 c127 -223 245 -434 263 -467 19 -34 43 -76 54 -93 l20 -33 -24 -1 c-124
-3 -861 0 -864 4 -5 4 25 103 151 497 103 322 118 368 137 433 12 37 24 67 27
67 3 0 110 -183 236 -407z m-1222 -933 c32 -102 76 -241 98 -308 22 -68 39
-126 36 -128 -3 -4 -441 266 -667 411 -36 23 -125 79 -197 124 -73 46 -133 84
-133 86 0 1 181 2 402 1 l402 -1 59 -185z m447 185 c4 -3 -10 -60 -32 -127
-22 -68 -60 -189 -85 -270 -26 -82 -49 -148 -52 -148 -3 0 -28 69 -54 153 -27
83 -62 195 -79 247 -17 52 -33 107 -35 121 l-5 27 167 1 c92 0 171 -2 175 -4z
m955 -11 c-11 -9 -40 -27 -65 -42 -25 -15 -49 -30 -55 -35 -26 -21 -858 -537
-861 -534 -2 2 5 30 15 63 10 32 31 97 45 144 51 162 117 365 127 391 l11 27
401 0 c362 1 400 -1 382 -14z"/>
</g>
</svg>
